<?xml version="1.0" encoding="utf-8"?>
<!-- Uploaded to: SVG Repo, www.svgrepo.com, Generator: SVG Repo Mixer Tools -->
<svg width="800px" height="800px" viewBox="0 -0.04 81.281 81.281" xmlns="http://www.w3.org/2000/svg">
  <g id="price_tag_dolar" data-name="price tag dolar" transform="translate(-1064.359 -1760.026)">
    <g id="Group_75" data-name="Group 75">
      <path id="Path_191" data-name="Path 191" d="M1079.909,1782.409a6.9,6.9,0,1,1,4.884-2.017,6.871,6.871,0,0,1-4.884,2.017Zm0-10.48a3.578,3.578,0,1,0,2.533,1.045,3.564,3.564,0,0,0-2.533-1.045Z" fill="#f4f4f4"/>
      <path id="Path_192" data-name="Path 192" d="M1102.663,1760.026h-20.84l-17.464,17.459v20.707l43.043,43.043L1145.64,1803Zm-17.87,20.366a6.9,6.9,0,1,1,0-9.764A6.892,6.892,0,0,1,1084.793,1780.392Z" fill="#fdb53f"/>
      <g id="Group_74" data-name="Group 74">
        <path id="Path_193" data-name="Path 193" d="M1076.724,1776.358a1.727,1.727,0,0,0,2.439,0l1.527-1.529a1.732,1.732,0,0,0,0-2.441l-10.785-10.787a1.72,1.72,0,0,0-2.439,0l-1.528,1.527a1.73,1.73,0,0,0,0,2.441Z" fill="#163844"/>
      </g>
    </g>
    <g id="Group_76" data-name="Group 76">
      <path id="Path_194" data-name="Path 194" d="M1103.958,1796.417a32.429,32.429,0,0,1,3.741-2.121,11.137,11.137,0,0,1,3.511-1.051,7.291,7.291,0,0,1,3.357.391,8.993,8.993,0,0,1,3.232,2.193,10.154,10.154,0,0,1,2.287,3.326,8.843,8.843,0,0,1,.673,3.641,9.947,9.947,0,0,1-.848,3.715,14.105,14.105,0,0,1-2.305,3.55l2.381,2.381-2.028,2.032-2.386-2.385a16.336,16.336,0,0,1-3.615,2.373,8.9,8.9,0,0,1-7.442.2,13.522,13.522,0,0,1-3.864-2.482l4.354-4.354a6.543,6.543,0,0,0,3.429,1.654,4.788,4.788,0,0,0,3.432-1.1l-6.429-6.428a24.67,24.67,0,0,1-3.445,1.893,11.091,11.091,0,0,1-3.452.941,7.728,7.728,0,0,1-3.361-.383,8.349,8.349,0,0,1-3.194-2.117,9.46,9.46,0,0,1-2.114-3.058,7.735,7.735,0,0,1-.632-3.364,9.891,9.891,0,0,1,.82-3.537,14.425,14.425,0,0,1,2.234-3.519l-2.338-2.342,2.03-2.029,2.376,2.38a10.75,10.75,0,0,1,6.671-2.851,9.43,9.43,0,0,1,6.379,2.531l-4.4,4.4a3.8,3.8,0,0,0-4.951-.37Zm-7.958-3.9c-1.338,1.888-1.236,3.619.317,5.162a3.188,3.188,0,0,0,2.426,1.113,6.162,6.162,0,0,0,2.676-.859Zm17.9,13.836a4.3,4.3,0,0,0,1.087-3.016,4.651,4.651,0,0,0-1.5-2.8,3.421,3.421,0,0,0-2.36-1.137,6.308,6.308,0,0,0-3.117,1.057Z" fill="#ff5245"/>
    </g>
  </g>
</svg>